<svg xmlns="http://www.w3.org/2000/svg" version="1.1" xmlns:xlink="http://www.w3.org/1999/xlink" xmlns:svgjs="http://svgjs.dev/svgjs" width="2000" height="1753" viewBox="0 0 2000 1753"><g transform="matrix(1,0,0,1,1.9185962494227624,1.5959118065187567)"><svg viewBox="0 0 195 171" data-background-color="#ffffff" preserveAspectRatio="xMidYMid meet" height="1753" width="2000" xmlns="http://www.w3.org/2000/svg" xmlns:xlink="http://www.w3.org/1999/xlink"><g id="tight-bounds" transform="matrix(1,0,0,1,-0.1870631343187199,-0.15567650822288215)"><svg viewBox="0 0 195.37412626863744 171.31135301644576" height="171.31135301644576" width="195.37412626863744"><g><svg viewBox="0 0 195.37412626863744 171.31135301644576" height="171.31135301644576" width="195.37412626863744"><g><svg viewBox="0 0 195.37412626863744 171.31135301644576" height="171.31135301644576" width="195.37412626863744"><g><path d="M0 171.311v-171.311h195.374v171.311z" fill="#000000" stroke="transparent" stroke-width="0" rx="0%" data-fill-palette-color="tertiary"></path><path d="M3.283 168.028v-164.745h188.808v164.745z" fill="#ffffff" stroke="transparent" stroke-width="0" rx="0%" data-fill-palette-color="quaternary"></path><path d="M9.85 161.461v-151.611h175.674v151.611z" fill="#000000" stroke="transparent" stroke-width="0" data-fill-palette-color="tertiary"></path></g><g transform="matrix(1,0,0,1,19.699740000000013,19.69974)" id="textblocktransform"><svg viewBox="0 0 155.97464626863743 131.91187301644578" height="131.91187301644578" width="155.97464626863743" id="textblock"><g><svg viewBox="0 0 155.97464626863743 100.57561757280003" height="100.57561757280003" width="155.97464626863743"><g transform="matrix(1,0,0,1,0,0)"><svg width="155.97464626863743" viewBox="-8.35 -33.4 70.95 45.75" height="100.57561757280003" data-palette-color="#ffffff"><path d="M5.65-2.95L5.65-2.95 5.65-31.75 1.3-32.25 1.3-33.4 16.65-33.4 16.65-32.25 12.3-31.75 12.3-2.45Q12.3 4.9 9.13 8.63 5.95 12.35 0.4 12.35L0.4 12.35Q-3.6 12.35-5.98 11.08-8.35 9.8-8.35 7.38-8.35 4.95-6.6 3.95L-6.6 3.95Q-5.65 3.45-4.67 3.45-3.7 3.45-2.7 3.9L-2.7 3.9Q-2.95 5.6-2.95 7-2.95 8.4-2.13 9.63-1.3 10.85 0.05 10.85 1.4 10.85 2.27 10.35 3.15 9.85 3.7 9.13 4.25 8.4 4.63 7.15 5 5.9 5.2 4.88 5.4 3.85 5.5 2.2L5.5 2.2Q5.65-0.3 5.65-2.95ZM62.6-1.2L62.6 0 48.55 0 48.55-1.2 52.35-1.65 51.05-27.3 41 0 38.35 0 26.35-27.05 25.4-2.45 29.6-1.2 29.6 0 19.35 0 19.35-1.2 23.5-2.65 24.5-31.75 20.25-32.25 20.25-33.4 30.2-33.4 41.5-7.05 51.25-33.4 61.9-33.4 61.95-32.25 57.65-31.75 58.75-1.65 62.6-1.2Z" opacity="1" transform="matrix(1,0,0,1,0,0)" fill="#ffffff" class="undefined-text-0" data-fill-palette-color="quaternary" id="text-0"></path></svg></g></svg></g><g transform="matrix(1,0,0,1,0,107.14219757280003)"><svg viewBox="0 0 155.97464626863743 24.76967544364577" height="24.76967544364577" width="155.97464626863743"><g transform="matrix(1,0,0,1,0,0)"><svg width="155.97464626863743" viewBox="1.25 -37.5 314.82 50" height="24.76967544364577" data-palette-color="#ffffff"><path d="M32.3-37.5L40.55-37.5 40.55-34.1 38.15-34.1 32.8 0 26.3 0 20.9-34.05 15.5 0 9 0 3.65-34.1 1.25-34.1 1.25-37.5 9.5-37.5 9.5-34.1 7.5-34.1 12.25-3.4 17.5-37.5 24.3-37.5 29.55-3.4 34.3-34.1 32.3-34.1 32.3-37.5ZM40.45-3.65L40.45-20.1Q40.45-25.05 45.6-25.05L45.6-25.05 54.05-25.05Q56.5-25.05 57.6-24.1 58.7-23.15 58.7-20.6L58.7-20.6 58.7-15.95 44.45-6.95 44.45-3.4 54.75-3.4 54.75-6.3 58.7-6.3 58.7-3.65Q58.7-2.15 57.77-1.07 56.85 0 54.7 0L54.7 0 44.45 0Q42.3 0 41.37-1.07 40.45-2.15 40.45-3.65L40.45-3.65ZM44.45-21.6L44.45-11 54.7-17.45 54.7-21.6 44.45-21.6ZM70.45-19.45L78.95-24.8Q80.05-25.5 81.52-25.5 83-25.5 84.02-24.4 85.05-23.3 85.05-21.2L85.05-21.2 85.05-4.4Q85.05-2.35 84.4-1.5L84.4-1.5Q83.2 0 80.75 0L80.75 0 63.2 0 63.2-3.4 66.35-3.4 66.35-34.1 63.2-34.1 63.2-37.5 70.45-37.5 70.45-19.45ZM81.05-3.4L81.05-22.1 70.45-15.45 70.45-3.4 81.05-3.4ZM108.04-37.5L125.69-37.5Q129.39-37.5 130.82-35.88 132.24-34.25 132.24-30.95L132.24-30.95 132.24-6.55Q132.24-3.1 130.64-1.55 129.04 0 125.69 0L125.69 0 108.04 0 108.04-3.4 111.19-3.4 111.19-34.1 108.04-34.1 108.04-37.5ZM128.14-3.4L128.14-34.1 115.29-34.1 115.29-3.4 128.14-3.4ZM137.74-3.65L137.74-20.1Q137.74-25.05 142.89-25.05L142.89-25.05 151.34-25.05Q153.79-25.05 154.89-24.1 155.99-23.15 155.99-20.6L155.99-20.6 155.99-15.95 141.74-6.95 141.74-3.4 152.04-3.4 152.04-6.3 155.99-6.3 155.99-3.65Q155.99-2.15 155.06-1.07 154.14 0 151.99 0L151.99 0 141.74 0Q139.59 0 138.66-1.07 137.74-2.15 137.74-3.65L137.74-3.65ZM141.74-21.6L141.74-11 151.99-17.45 151.99-21.6 141.74-21.6ZM159.49-25L168.69-25 168.69-21.6 166.24-21.6 171.24-3.4 176.34-21.6 173.89-21.6 173.89-25 183.14-25 183.14-21.6 180.14-21.6 174.09 0 168.54 0 162.44-21.6 159.49-21.6 159.49-25ZM186.63-3.65L186.63-20.1Q186.63-25.05 191.78-25.05L191.78-25.05 200.23-25.05Q202.68-25.05 203.78-24.1 204.88-23.15 204.88-20.6L204.88-20.6 204.88-15.95 190.63-6.95 190.63-3.4 200.93-3.4 200.93-6.3 204.88-6.3 204.88-3.65Q204.88-2.15 203.96-1.07 203.03 0 200.88 0L200.88 0 190.63 0Q188.48 0 187.56-1.07 186.63-2.15 186.63-3.65L186.63-3.65ZM190.63-21.6L190.63-11 200.88-17.45 200.88-21.6 190.63-21.6ZM217.13-37.5L217.13-3.4 220.38-3.4 220.38 0 209.88 0 209.88-3.4 213.03-3.4 213.03-34.1 209.88-34.1 209.88-37.5 217.13-37.5ZM238.78 0L229.53 0Q226.98 0 225.93-1.18 224.88-2.35 224.88-4.45L224.88-4.45 224.88-20.55Q224.88-22.55 225.8-23.78 226.73-25 229.53-25L229.53-25 238.78-25Q241.53-25 242.48-23.78 243.43-22.55 243.43-20.55L243.43-20.55 243.43-4.45Q243.43-2.35 242.38-1.18 241.33 0 238.78 0L238.78 0ZM228.93-21.6L228.93-3.4 239.38-3.4 239.38-21.6 228.93-21.6ZM254.68-15.3L254.68-3.4 265.28-3.4 265.28-21.95 254.68-15.3ZM247.48 12.5L247.48 9.1 250.58 9.1 250.58-21.55 247.43-21.55 247.43-25 254.68-25 254.68-19.3 263.33-24.75Q264.53-25.5 265.88-25.5 267.23-25.5 268.25-24.68 269.28-23.85 269.28-22.25L269.28-22.25 269.28-4.7Q269.28-2.4 268.63-1.55L268.63-1.55Q267.38 0 264.78 0L264.78 0 254.68 0 254.68 9.1 257.98 9.1 257.98 12.5 247.48 12.5ZM274.27-3.65L274.27-20.1Q274.27-25.05 279.42-25.05L279.42-25.05 287.87-25.05Q290.32-25.05 291.42-24.1 292.52-23.15 292.52-20.6L292.52-20.6 292.52-15.95 278.27-6.95 278.27-3.4 288.57-3.4 288.57-6.3 292.52-6.3 292.52-3.65Q292.52-2.15 291.6-1.07 290.67 0 288.52 0L288.52 0 278.27 0Q276.12 0 275.2-1.07 274.27-2.15 274.27-3.65L274.27-3.65ZM278.27-21.6L278.27-11 288.52-17.45 288.52-21.6 278.27-21.6ZM312.17-25L312.17-25Q316.07-25 316.07-21.15L316.07-21.15 316.07-16.7 312.02-16.7 312.02-21.55 304.22-16.6 304.22-3.4 306.67-3.4 306.67 0 297.02 0 297.02-3.4 300.17-3.4 300.17-21.65 297.02-21.65 297.02-25.05 304.22-25.05 304.22-20.65 310.37-24.5Q311.17-25 312.17-25Z" opacity="1" transform="matrix(1,0,0,1,0,0)" fill="#ffffff" class="undefined-text-1" data-fill-palette-color="quaternary" id="text-1"></path></svg></g></svg></g></svg></g></svg></g><g></g></svg></g><defs></defs></svg><rect width="195.37412626863744" height="171.31135301644576" fill="none" stroke="none" visibility="hidden"></rect></g></svg></g></svg>